<svg id="visual" viewBox="0 0 240 120" width="240" height="120" xmlns="http://www.w3.org/2000/svg" xmlns:xlink="http://www.w3.org/1999/xlink" version="1.1"><rect x="0" y="0" width="240" height="120" fill="#ff7d32"></rect><path d="M0 41L13 41L13 48L27 48L27 46L40 46L40 55L53 55L53 42L67 42L67 42L80 42L80 49L93 49L93 39L107 39L107 40L120 40L120 39L133 39L133 48L147 48L147 42L160 42L160 43L173 43L173 48L187 48L187 50L200 50L200 45L213 45L213 55L227 55L227 44L240 44L240 47L240 121L240 121L227 121L227 121L213 121L213 121L200 121L200 121L187 121L187 121L173 121L173 121L160 121L160 121L147 121L147 121L133 121L133 121L120 121L120 121L107 121L107 121L93 121L93 121L80 121L80 121L67 121L67 121L53 121L53 121L40 121L40 121L27 121L27 121L13 121L13 121L0 121Z" fill="#ad1a00"></path><path d="M0 67L13 67L13 68L27 68L27 59L40 59L40 55L53 55L53 56L67 56L67 53L80 53L80 64L93 64L93 61L107 61L107 53L120 53L120 56L133 56L133 65L147 65L147 57L160 57L160 58L173 58L173 61L187 61L187 59L200 59L200 66L213 66L213 68L227 68L227 55L240 55L240 68L240 121L240 121L227 121L227 121L213 121L213 121L200 121L200 121L187 121L187 121L173 121L173 121L160 121L160 121L147 121L147 121L133 121L133 121L120 121L120 121L107 121L107 121L93 121L93 121L80 121L80 121L67 121L67 121L53 121L53 121L40 121L40 121L27 121L27 121L13 121L13 121L0 121Z" fill="#a11401"></path><path d="M0 67L13 67L13 74L27 74L27 76L40 76L40 75L53 75L53 73L67 73L67 69L80 69L80 68L93 68L93 67L107 67L107 79L120 79L120 68L133 68L133 78L147 78L147 73L160 73L160 79L173 79L173 69L187 69L187 75L200 75L200 68L213 68L213 72L227 72L227 75L240 75L240 75L240 121L240 121L227 121L227 121L213 121L213 121L200 121L200 121L187 121L187 121L173 121L173 121L160 121L160 121L147 121L147 121L133 121L133 121L120 121L120 121L107 121L107 121L93 121L93 121L80 121L80 121L67 121L67 121L53 121L53 121L40 121L40 121L27 121L27 121L13 121L13 121L0 121Z" fill="#960d02"></path><path d="M0 84L13 84L13 90L27 90L27 88L40 88L40 86L53 86L53 81L67 81L67 82L80 82L80 82L93 82L93 87L107 87L107 81L120 81L120 84L133 84L133 90L147 90L147 90L160 90L160 85L173 85L173 88L187 88L187 87L200 87L200 81L213 81L213 82L227 82L227 91L240 91L240 81L240 121L240 121L227 121L227 121L213 121L213 121L200 121L200 121L187 121L187 121L173 121L173 121L160 121L160 121L147 121L147 121L133 121L133 121L120 121L120 121L107 121L107 121L93 121L93 121L80 121L80 121L67 121L67 121L53 121L53 121L40 121L40 121L27 121L27 121L13 121L13 121L0 121Z" fill="#8b0601"></path><path d="M0 98L13 98L13 96L27 96L27 101L40 101L40 100L53 100L53 102L67 102L67 98L80 98L80 99L93 99L93 97L107 97L107 99L120 99L120 99L133 99L133 103L147 103L147 99L160 99L160 98L173 98L173 97L187 97L187 101L200 101L200 100L213 100L213 98L227 98L227 96L240 96L240 101L240 121L240 121L227 121L227 121L213 121L213 121L200 121L200 121L187 121L187 121L173 121L173 121L160 121L160 121L147 121L147 121L133 121L133 121L120 121L120 121L107 121L107 121L93 121L93 121L80 121L80 121L67 121L67 121L53 121L53 121L40 121L40 121L27 121L27 121L13 121L13 121L0 121Z" fill="#800000"></path></svg>