<svg id="visual" viewBox="0 0 3840 2160" width="3840" height="2160" xmlns="http://www.w3.org/2000/svg" xmlns:xlink="http://www.w3.org/1999/xlink" version="1.1"><rect x="0" y="0" width="3840" height="2160" fill="#f1852d"></rect><path d="M0 768L202 1101L404 998L606 1125L808 488L1011 631L1213 1066L1415 701L1617 721L1819 836L2021 1109L2223 632L2425 1293L2627 1060L2829 571L3032 668L3234 802L3436 881L3638 881L3840 844L3840 0L3638 0L3436 0L3234 0L3032 0L2829 0L2627 0L2425 0L2223 0L2021 0L1819 0L1617 0L1415 0L1213 0L1011 0L808 0L606 0L404 0L202 0L0 0Z" fill="#890000"></path><path d="M0 729L202 858L404 506L606 637L808 969L1011 658L1213 286L1415 444L1617 330L1819 371L2021 270L2223 626L2425 865L2627 598L2829 692L3032 586L3234 690L3436 375L3638 940L3840 784L3840 0L3638 0L3436 0L3234 0L3032 0L2829 0L2627 0L2425 0L2223 0L2021 0L1819 0L1617 0L1415 0L1213 0L1011 0L808 0L606 0L404 0L202 0L0 0Z" fill="#810000"></path><path d="M0 242L202 263L404 604L606 614L808 327L1011 535L1213 466L1415 598L1617 648L1819 164L2021 522L2223 343L2425 547L2627 769L2829 551L3032 339L3234 166L3436 158L3638 139L3840 316L3840 0L3638 0L3436 0L3234 0L3032 0L2829 0L2627 0L2425 0L2223 0L2021 0L1819 0L1617 0L1415 0L1213 0L1011 0L808 0L606 0L404 0L202 0L0 0Z" fill="#810000"></path><path d="M0 129L202 32L404 340L606 464L808 172L1011 300L1213 288L1415 465L1617 98L1819 224L2021 180L2223 420L2425 68L2627 500L2829 460L3032 373L3234 430L3436 477L3638 425L3840 145L3840 0L3638 0L3436 0L3234 0L3032 0L2829 0L2627 0L2425 0L2223 0L2021 0L1819 0L1617 0L1415 0L1213 0L1011 0L808 0L606 0L404 0L202 0L0 0Z" fill="#890000"></path></svg>