<svg id="visual" viewBox="0 0 600 150" width="600" height="150" xmlns="http://www.w3.org/2000/svg" xmlns:xlink="http://www.w3.org/1999/xlink" version="1.1"><path d="M0 30L55 55L109 51L164 27L218 30L273 37L327 36L382 25L436 22L491 34L545 36L600 58L600 0L545 0L491 0L436 0L382 0L327 0L273 0L218 0L164 0L109 0L55 0L0 0Z" fill="#880000"></path><path d="M0 39L55 79L109 61L164 49L218 54L273 46L327 58L382 40L436 34L491 43L545 58L600 75L600 56L545 34L491 32L436 20L382 23L327 34L273 35L218 28L164 25L109 49L55 53L0 28Z" fill="#760404"></path><path d="M0 72L55 104L109 86L164 73L218 84L273 72L327 78L382 61L436 61L491 54L545 88L600 85L600 73L545 56L491 41L436 32L382 38L327 56L273 44L218 52L164 47L109 59L55 77L0 37Z" fill="#6c0505"></path><path d="M0 138L55 135L109 114L164 121L218 133L273 114L327 120L382 118L436 118L491 129L545 121L600 117L600 83L545 86L491 52L436 59L382 59L327 76L273 70L218 82L164 71L109 84L55 102L0 70Z" fill="#760404"></path><path d="M0 151L55 151L109 151L164 151L218 151L273 151L327 151L382 151L436 151L491 151L545 151L600 151L600 115L545 119L491 127L436 116L382 116L327 118L273 112L218 131L164 119L109 112L55 133L0 136Z" fill="#880000"></path></svg>